<mxfile host="app.diagrams.net" modified="2024-05-24T12:16:05.378Z" agent="Mozilla/5.0 (Windows NT 10.0; Win64; x64) AppleWebKit/537.36 (KHTML, like Gecko) Chrome/125.0.0.0 Safari/537.36 Edg/125.0.0.0" etag="eE6K9algzJH_cXUrcW3b" version="24.4.7" type="github">
  <diagram name="第 1 页" id="C66fUa8SsGzZPBdXzG9W">
    <mxGraphModel dx="3721" dy="2756" grid="1" gridSize="10" guides="1" tooltips="1" connect="1" arrows="1" fold="1" page="1" pageScale="1" pageWidth="827" pageHeight="1169" math="0" shadow="0">
      <root>
        <mxCell id="0" />
        <mxCell id="1" parent="0" />
        <mxCell id="y5qCoeXlOaaje20BISwL-19" style="edgeStyle=orthogonalEdgeStyle;rounded=0;sketch=1;hachureGap=4;jiggle=2;curveFitting=1;orthogonalLoop=1;jettySize=auto;html=1;exitX=0.5;exitY=1;exitDx=0;exitDy=0;fontFamily=Architects Daughter;fontSource=https%3A%2F%2Ffonts.googleapis.com%2Fcss%3Ffamily%3DArchitects%2BDaughter;" edge="1" parent="1" source="h03oHfglPhTB2q8768p--1" target="y5qCoeXlOaaje20BISwL-8">
          <mxGeometry relative="1" as="geometry" />
        </mxCell>
        <mxCell id="y5qCoeXlOaaje20BISwL-20" style="edgeStyle=orthogonalEdgeStyle;rounded=0;sketch=1;hachureGap=4;jiggle=2;curveFitting=1;orthogonalLoop=1;jettySize=auto;html=1;exitX=0.5;exitY=1;exitDx=0;exitDy=0;fontFamily=Architects Daughter;fontSource=https%3A%2F%2Ffonts.googleapis.com%2Fcss%3Ffamily%3DArchitects%2BDaughter;" edge="1" parent="1" source="h03oHfglPhTB2q8768p--1" target="y5qCoeXlOaaje20BISwL-9">
          <mxGeometry relative="1" as="geometry" />
        </mxCell>
        <mxCell id="h03oHfglPhTB2q8768p--1" value="中心思想：统一后台调研，探索系统实现方案-调研现有系统实现及接入，为建立统一后台系统做准备" style="rounded=1;whiteSpace=wrap;html=1;sketch=1;curveFitting=1;jiggle=2;labelBackgroundColor=none;fillColor=#b1ddf0;strokeColor=#10739e;fontSize=13;fontStyle=0;" parent="1" vertex="1">
          <mxGeometry x="-60" y="-480" width="610" height="60" as="geometry" />
        </mxCell>
        <mxCell id="h03oHfglPhTB2q8768p--2" value="&lt;span style=&quot;text-align: start; font-size: 13px;&quot;&gt;魔方系统，前端使用rock平台搭建，前后端均使用upms系统鉴权。&lt;/span&gt;" style="rounded=1;whiteSpace=wrap;html=1;sketch=1;curveFitting=1;jiggle=2;labelBackgroundColor=none;fillColor=#b1ddf0;strokeColor=#10739e;fontSize=13;fontStyle=0;" parent="1" vertex="1">
          <mxGeometry x="-736.25" y="-105" width="73" height="150" as="geometry" />
        </mxCell>
        <mxCell id="h03oHfglPhTB2q8768p--3" value="公共侧小红书接入了服务平台，服务平台用作小红书的后台，可外网访问" style="rounded=1;whiteSpace=wrap;html=1;sketch=1;curveFitting=1;jiggle=2;labelBackgroundColor=none;fillColor=#b1ddf0;strokeColor=#10739e;fontSize=13;fontStyle=0;" parent="1" vertex="1">
          <mxGeometry x="-546.25" y="-105" width="73" height="150" as="geometry" />
        </mxCell>
        <mxCell id="h03oHfglPhTB2q8768p--4" value="公共侧会员相关和小红书相关后台集中在bms，bms采用vue3+element-plus进行开发，采用RBAC权限模型" style="rounded=1;whiteSpace=wrap;html=1;sketch=1;curveFitting=1;jiggle=2;labelBackgroundColor=none;fillColor=#b1ddf0;strokeColor=#10739e;fontSize=13;fontStyle=0;" parent="1" vertex="1">
          <mxGeometry x="-366.25" y="-105" width="91" height="170" as="geometry" />
        </mxCell>
        <mxCell id="y5qCoeXlOaaje20BISwL-33" style="edgeStyle=orthogonalEdgeStyle;rounded=0;sketch=1;hachureGap=4;jiggle=2;curveFitting=1;orthogonalLoop=1;jettySize=auto;html=1;exitX=0.5;exitY=1;exitDx=0;exitDy=0;fontFamily=Architects Daughter;fontSource=https%3A%2F%2Ffonts.googleapis.com%2Fcss%3Ffamily%3DArchitects%2BDaughter;" edge="1" parent="1" source="h03oHfglPhTB2q8768p--6" target="h03oHfglPhTB2q8768p--12">
          <mxGeometry relative="1" as="geometry" />
        </mxCell>
        <mxCell id="y5qCoeXlOaaje20BISwL-34" style="edgeStyle=orthogonalEdgeStyle;rounded=0;sketch=1;hachureGap=4;jiggle=2;curveFitting=1;orthogonalLoop=1;jettySize=auto;html=1;exitX=0.5;exitY=1;exitDx=0;exitDy=0;entryX=0.5;entryY=0;entryDx=0;entryDy=0;fontFamily=Architects Daughter;fontSource=https%3A%2F%2Ffonts.googleapis.com%2Fcss%3Ffamily%3DArchitects%2BDaughter;" edge="1" parent="1" source="h03oHfglPhTB2q8768p--6" target="h03oHfglPhTB2q8768p--13">
          <mxGeometry relative="1" as="geometry" />
        </mxCell>
        <mxCell id="h03oHfglPhTB2q8768p--6" value="前端页面接入：&lt;div style=&quot;font-size: 13px;&quot;&gt;在rock平台上进行页面配置&lt;/div&gt;" style="rounded=1;whiteSpace=wrap;html=1;sketch=1;curveFitting=1;jiggle=2;labelBackgroundColor=none;fillColor=#b1ddf0;strokeColor=#10739e;fontSize=13;fontStyle=0;" parent="1" vertex="1">
          <mxGeometry x="-165.75" y="105" width="70" height="190" as="geometry" />
        </mxCell>
        <mxCell id="h03oHfglPhTB2q8768p--7" value="后端接入：&lt;div style=&quot;font-size: 13px;&quot;&gt;接口引入upms鉴权jar包即可&lt;/div&gt;" style="rounded=1;whiteSpace=wrap;html=1;sketch=1;curveFitting=1;jiggle=2;labelBackgroundColor=none;fillColor=#b1ddf0;strokeColor=#10739e;fontSize=13;fontStyle=0;" parent="1" vertex="1">
          <mxGeometry x="44.25" y="105" width="70" height="190" as="geometry" />
        </mxCell>
        <mxCell id="h03oHfglPhTB2q8768p--9" value="&lt;div style=&quot;font-size: 13px;&quot;&gt;开发指南：&lt;/div&gt;&lt;div style=&quot;font-size: 13px;&quot;&gt;参考服务平台开发指南wiki&lt;/div&gt;" style="rounded=1;whiteSpace=wrap;html=1;sketch=1;curveFitting=1;jiggle=2;labelBackgroundColor=none;fillColor=#b1ddf0;strokeColor=#10739e;fontSize=13;fontStyle=0;" parent="1" vertex="1">
          <mxGeometry x="217.25" y="115" width="70" height="190" as="geometry" />
        </mxCell>
        <mxCell id="h03oHfglPhTB2q8768p--12" value="菜单栏配置：&lt;div style=&quot;font-size: 13px;&quot;&gt;修改菜单栏配置页面，添加新的页面&lt;/div&gt;" style="rounded=1;whiteSpace=wrap;html=1;sketch=1;curveFitting=1;jiggle=2;labelBackgroundColor=none;fillColor=#b1ddf0;strokeColor=#10739e;fontSize=13;fontStyle=0;" parent="1" vertex="1">
          <mxGeometry x="-265.75" y="385" width="70" height="200" as="geometry" />
        </mxCell>
        <mxCell id="h03oHfglPhTB2q8768p--13" value="页面权限配置：&lt;div style=&quot;font-size: 13px;&quot;&gt;修改needPermission配置&lt;/div&gt;" style="rounded=1;whiteSpace=wrap;html=1;sketch=1;curveFitting=1;jiggle=2;labelBackgroundColor=none;fillColor=#b1ddf0;strokeColor=#10739e;fontSize=13;fontStyle=0;" parent="1" vertex="1">
          <mxGeometry x="-60" y="390" width="70" height="195" as="geometry" />
        </mxCell>
        <mxCell id="h03oHfglPhTB2q8768p--14" value="&lt;div style=&quot;font-size: 13px;&quot;&gt;&lt;div style=&quot;font-size: 13px;&quot;&gt;嵌入服务平台：&lt;/div&gt;&lt;div style=&quot;font-size: 13px;&quot;&gt;服务平台通过ifram嵌入的页面，将服务平台的登录态切换为bms的登录态就行，详细流程参考wiki&lt;/div&gt;&lt;/div&gt;" style="rounded=1;whiteSpace=wrap;html=1;sketch=1;curveFitting=1;jiggle=2;labelBackgroundColor=none;fillColor=#b1ddf0;strokeColor=#10739e;fontSize=13;fontStyle=0;" parent="1" vertex="1">
          <mxGeometry x="384.25" y="175" width="140" height="230" as="geometry" />
        </mxCell>
        <mxCell id="h03oHfglPhTB2q8768p--15" value="嵌入魔方系统：&lt;div style=&quot;font-size: 13px;&quot;&gt;在rock平台拖拽编辑即可，详细流程参考wiki&lt;/div&gt;" style="rounded=1;whiteSpace=wrap;html=1;sketch=1;curveFitting=1;jiggle=2;labelBackgroundColor=none;fillColor=#b1ddf0;strokeColor=#10739e;fontSize=13;fontStyle=0;" parent="1" vertex="1">
          <mxGeometry x="594.25" y="165" width="140" height="230" as="geometry" />
        </mxCell>
        <mxCell id="y5qCoeXlOaaje20BISwL-4" value="&lt;font style=&quot;font-size: 17px;&quot;&gt;A：TL；B：希望TL了解现有的一些后台系统的实现方案，以后搭建统一后台系统的大概流程和方案，方便以后进行相关的后台系统开发。&lt;/font&gt;" style="text;html=1;align=center;verticalAlign=middle;whiteSpace=wrap;rounded=0;fontFamily=Architects Daughter;fontSource=https%3A%2F%2Ffonts.googleapis.com%2Fcss%3Ffamily%3DArchitects%2BDaughter;fillColor=#C7F2FF;gradientColor=none;" vertex="1" parent="1">
          <mxGeometry x="-311" y="-770" width="1070" height="100" as="geometry" />
        </mxCell>
        <mxCell id="y5qCoeXlOaaje20BISwL-5" value="&lt;font style=&quot;font-size: 16px;&quot;&gt;序言：目前组内外有多套后台系统，对具体系统的实现方案和接入流程不清晰。后面想要开发统一后台系统的话，不了解现有后台系统的现状及接入流程，会影响系统的开发。因此通过对现有后台系统进行系统和接入流程调研，为建立统一后台系统提供参考，使用rock+upms的方案，能够提高以后后台系统开发的效率和速度&lt;/font&gt;" style="text;html=1;align=center;verticalAlign=middle;whiteSpace=wrap;rounded=0;fontFamily=Architects Daughter;fontSource=https%3A%2F%2Ffonts.googleapis.com%2Fcss%3Ffamily%3DArchitects%2BDaughter;fillColor=#CCFFD5;gradientColor=none;" vertex="1" parent="1">
          <mxGeometry x="-280" y="-584" width="990" height="90" as="geometry" />
        </mxCell>
        <mxCell id="y5qCoeXlOaaje20BISwL-6" value="&lt;b&gt;&lt;font style=&quot;font-size: 19px;&quot;&gt;标题：统一后台系统实现及接入调研，使用rock+upms方案适宜，为相关需求开发做准备&lt;/font&gt;&lt;/b&gt;" style="text;html=1;align=center;verticalAlign=middle;whiteSpace=wrap;rounded=0;fontFamily=Architects Daughter;fontSource=https%3A%2F%2Ffonts.googleapis.com%2Fcss%3Ffamily%3DArchitects%2BDaughter;" vertex="1" parent="1">
          <mxGeometry x="-190" y="-640" width="790" height="30" as="geometry" />
        </mxCell>
        <mxCell id="y5qCoeXlOaaje20BISwL-27" style="edgeStyle=orthogonalEdgeStyle;rounded=0;sketch=1;hachureGap=4;jiggle=2;curveFitting=1;orthogonalLoop=1;jettySize=auto;html=1;exitX=0.5;exitY=1;exitDx=0;exitDy=0;entryX=0.5;entryY=0;entryDx=0;entryDy=0;fontFamily=Architects Daughter;fontSource=https%3A%2F%2Ffonts.googleapis.com%2Fcss%3Ffamily%3DArchitects%2BDaughter;" edge="1" parent="1" source="y5qCoeXlOaaje20BISwL-7" target="h03oHfglPhTB2q8768p--2">
          <mxGeometry relative="1" as="geometry" />
        </mxCell>
        <mxCell id="y5qCoeXlOaaje20BISwL-28" style="edgeStyle=orthogonalEdgeStyle;rounded=0;sketch=1;hachureGap=4;jiggle=2;curveFitting=1;orthogonalLoop=1;jettySize=auto;html=1;exitX=0.5;exitY=1;exitDx=0;exitDy=0;entryX=0.5;entryY=0;entryDx=0;entryDy=0;fontFamily=Architects Daughter;fontSource=https%3A%2F%2Ffonts.googleapis.com%2Fcss%3Ffamily%3DArchitects%2BDaughter;" edge="1" parent="1" source="y5qCoeXlOaaje20BISwL-7" target="h03oHfglPhTB2q8768p--3">
          <mxGeometry relative="1" as="geometry" />
        </mxCell>
        <mxCell id="y5qCoeXlOaaje20BISwL-29" style="edgeStyle=orthogonalEdgeStyle;rounded=0;sketch=1;hachureGap=4;jiggle=2;curveFitting=1;orthogonalLoop=1;jettySize=auto;html=1;exitX=0.5;exitY=1;exitDx=0;exitDy=0;entryX=0.5;entryY=0;entryDx=0;entryDy=0;fontFamily=Architects Daughter;fontSource=https%3A%2F%2Ffonts.googleapis.com%2Fcss%3Ffamily%3DArchitects%2BDaughter;" edge="1" parent="1" source="y5qCoeXlOaaje20BISwL-7" target="h03oHfglPhTB2q8768p--4">
          <mxGeometry relative="1" as="geometry" />
        </mxCell>
        <mxCell id="y5qCoeXlOaaje20BISwL-7" value="魔方系统前端采用rock搭建，鉴权使用upms。服务平台系统主要用于小红书业务。bms系统主要用作会员后台系统" style="rounded=1;whiteSpace=wrap;html=1;sketch=1;curveFitting=1;jiggle=2;labelBackgroundColor=none;fillColor=#b1ddf0;strokeColor=#10739e;fontSize=13;fontStyle=0;" vertex="1" parent="1">
          <mxGeometry x="-665.75" y="-325" width="320" height="110" as="geometry" />
        </mxCell>
        <mxCell id="y5qCoeXlOaaje20BISwL-22" style="edgeStyle=orthogonalEdgeStyle;rounded=0;sketch=1;hachureGap=4;jiggle=2;curveFitting=1;orthogonalLoop=1;jettySize=auto;html=1;exitX=0.5;exitY=1;exitDx=0;exitDy=0;entryX=0.5;entryY=0;entryDx=0;entryDy=0;fontFamily=Architects Daughter;fontSource=https%3A%2F%2Ffonts.googleapis.com%2Fcss%3Ffamily%3DArchitects%2BDaughter;" edge="1" parent="1" source="y5qCoeXlOaaje20BISwL-8" target="y5qCoeXlOaaje20BISwL-13">
          <mxGeometry relative="1" as="geometry" />
        </mxCell>
        <mxCell id="y5qCoeXlOaaje20BISwL-23" style="edgeStyle=orthogonalEdgeStyle;rounded=0;sketch=1;hachureGap=4;jiggle=2;curveFitting=1;orthogonalLoop=1;jettySize=auto;html=1;exitX=0.5;exitY=1;exitDx=0;exitDy=0;entryX=0.5;entryY=0;entryDx=0;entryDy=0;fontFamily=Architects Daughter;fontSource=https%3A%2F%2Ffonts.googleapis.com%2Fcss%3Ffamily%3DArchitects%2BDaughter;" edge="1" parent="1" source="y5qCoeXlOaaje20BISwL-8" target="y5qCoeXlOaaje20BISwL-14">
          <mxGeometry relative="1" as="geometry" />
        </mxCell>
        <mxCell id="y5qCoeXlOaaje20BISwL-24" style="edgeStyle=orthogonalEdgeStyle;rounded=0;sketch=1;hachureGap=4;jiggle=2;curveFitting=1;orthogonalLoop=1;jettySize=auto;html=1;exitX=0.5;exitY=1;exitDx=0;exitDy=0;fontFamily=Architects Daughter;fontSource=https%3A%2F%2Ffonts.googleapis.com%2Fcss%3Ffamily%3DArchitects%2BDaughter;" edge="1" parent="1" source="y5qCoeXlOaaje20BISwL-8" target="y5qCoeXlOaaje20BISwL-15">
          <mxGeometry relative="1" as="geometry" />
        </mxCell>
        <mxCell id="y5qCoeXlOaaje20BISwL-8" value="魔方系统和服务平台可以通过嵌入页面的方式接入Bms后台系统" style="rounded=1;whiteSpace=wrap;html=1;sketch=1;curveFitting=1;jiggle=2;labelBackgroundColor=none;fillColor=#b1ddf0;strokeColor=#10739e;fontSize=13;fontStyle=0;" vertex="1" parent="1">
          <mxGeometry x="64.25" y="-325" width="366" height="110" as="geometry" />
        </mxCell>
        <mxCell id="y5qCoeXlOaaje20BISwL-25" style="edgeStyle=orthogonalEdgeStyle;rounded=0;sketch=1;hachureGap=4;jiggle=2;curveFitting=1;orthogonalLoop=1;jettySize=auto;html=1;exitX=0.5;exitY=1;exitDx=0;exitDy=0;entryX=0.5;entryY=0;entryDx=0;entryDy=0;fontFamily=Architects Daughter;fontSource=https%3A%2F%2Ffonts.googleapis.com%2Fcss%3Ffamily%3DArchitects%2BDaughter;" edge="1" parent="1" source="y5qCoeXlOaaje20BISwL-9" target="y5qCoeXlOaaje20BISwL-16">
          <mxGeometry relative="1" as="geometry" />
        </mxCell>
        <mxCell id="y5qCoeXlOaaje20BISwL-26" style="edgeStyle=orthogonalEdgeStyle;rounded=0;sketch=1;hachureGap=4;jiggle=2;curveFitting=1;orthogonalLoop=1;jettySize=auto;html=1;exitX=0.5;exitY=1;exitDx=0;exitDy=0;entryX=0.5;entryY=0;entryDx=0;entryDy=0;fontFamily=Architects Daughter;fontSource=https%3A%2F%2Ffonts.googleapis.com%2Fcss%3Ffamily%3DArchitects%2BDaughter;" edge="1" parent="1" source="y5qCoeXlOaaje20BISwL-9" target="y5qCoeXlOaaje20BISwL-17">
          <mxGeometry relative="1" as="geometry" />
        </mxCell>
        <mxCell id="y5qCoeXlOaaje20BISwL-9" value="建立统一后台可以采用rock+upms方案，通过嵌入的方式接入现有的后台系统" style="rounded=1;whiteSpace=wrap;html=1;sketch=1;curveFitting=1;jiggle=2;labelBackgroundColor=none;fillColor=#b1ddf0;strokeColor=#10739e;fontSize=13;fontStyle=0;" vertex="1" parent="1">
          <mxGeometry x="794.25" y="-325" width="390" height="105" as="geometry" />
        </mxCell>
        <mxCell id="y5qCoeXlOaaje20BISwL-30" style="edgeStyle=orthogonalEdgeStyle;rounded=0;sketch=1;hachureGap=4;jiggle=2;curveFitting=1;orthogonalLoop=1;jettySize=auto;html=1;exitX=0.5;exitY=1;exitDx=0;exitDy=0;entryX=0.5;entryY=0;entryDx=0;entryDy=0;fontFamily=Architects Daughter;fontSource=https%3A%2F%2Ffonts.googleapis.com%2Fcss%3Ffamily%3DArchitects%2BDaughter;" edge="1" parent="1" source="y5qCoeXlOaaje20BISwL-13" target="h03oHfglPhTB2q8768p--6">
          <mxGeometry relative="1" as="geometry" />
        </mxCell>
        <mxCell id="y5qCoeXlOaaje20BISwL-31" style="edgeStyle=orthogonalEdgeStyle;rounded=0;sketch=1;hachureGap=4;jiggle=2;curveFitting=1;orthogonalLoop=1;jettySize=auto;html=1;exitX=0.5;exitY=1;exitDx=0;exitDy=0;entryX=0.5;entryY=0;entryDx=0;entryDy=0;fontFamily=Architects Daughter;fontSource=https%3A%2F%2Ffonts.googleapis.com%2Fcss%3Ffamily%3DArchitects%2BDaughter;" edge="1" parent="1" source="y5qCoeXlOaaje20BISwL-13" target="h03oHfglPhTB2q8768p--7">
          <mxGeometry relative="1" as="geometry" />
        </mxCell>
        <mxCell id="y5qCoeXlOaaje20BISwL-13" value="魔方营销系接入流程" style="rounded=1;whiteSpace=wrap;html=1;sketch=1;curveFitting=1;jiggle=2;labelBackgroundColor=none;fillColor=#b1ddf0;strokeColor=#10739e;fontSize=13;fontStyle=0;" vertex="1" parent="1">
          <mxGeometry x="-75.75" y="-115" width="73" height="150" as="geometry" />
        </mxCell>
        <mxCell id="y5qCoeXlOaaje20BISwL-35" style="edgeStyle=orthogonalEdgeStyle;rounded=0;sketch=1;hachureGap=4;jiggle=2;curveFitting=1;orthogonalLoop=1;jettySize=auto;html=1;exitX=0.5;exitY=1;exitDx=0;exitDy=0;entryX=0.5;entryY=0;entryDx=0;entryDy=0;fontFamily=Architects Daughter;fontSource=https%3A%2F%2Ffonts.googleapis.com%2Fcss%3Ffamily%3DArchitects%2BDaughter;" edge="1" parent="1" source="y5qCoeXlOaaje20BISwL-14" target="h03oHfglPhTB2q8768p--9">
          <mxGeometry relative="1" as="geometry" />
        </mxCell>
        <mxCell id="y5qCoeXlOaaje20BISwL-14" value="服务平台开发指南" style="rounded=1;whiteSpace=wrap;html=1;sketch=1;curveFitting=1;jiggle=2;labelBackgroundColor=none;fillColor=#b1ddf0;strokeColor=#10739e;fontSize=13;fontStyle=0;" vertex="1" parent="1">
          <mxGeometry x="214.25" y="-115" width="73" height="150" as="geometry" />
        </mxCell>
        <mxCell id="y5qCoeXlOaaje20BISwL-36" style="edgeStyle=orthogonalEdgeStyle;rounded=0;sketch=1;hachureGap=4;jiggle=2;curveFitting=1;orthogonalLoop=1;jettySize=auto;html=1;exitX=0.5;exitY=1;exitDx=0;exitDy=0;entryX=0.5;entryY=0;entryDx=0;entryDy=0;fontFamily=Architects Daughter;fontSource=https%3A%2F%2Ffonts.googleapis.com%2Fcss%3Ffamily%3DArchitects%2BDaughter;" edge="1" parent="1" source="y5qCoeXlOaaje20BISwL-15" target="h03oHfglPhTB2q8768p--14">
          <mxGeometry relative="1" as="geometry" />
        </mxCell>
        <mxCell id="y5qCoeXlOaaje20BISwL-37" style="edgeStyle=orthogonalEdgeStyle;rounded=0;sketch=1;hachureGap=4;jiggle=2;curveFitting=1;orthogonalLoop=1;jettySize=auto;html=1;exitX=0.5;exitY=1;exitDx=0;exitDy=0;entryX=0.5;entryY=0;entryDx=0;entryDy=0;fontFamily=Architects Daughter;fontSource=https%3A%2F%2Ffonts.googleapis.com%2Fcss%3Ffamily%3DArchitects%2BDaughter;" edge="1" parent="1" source="y5qCoeXlOaaje20BISwL-15" target="h03oHfglPhTB2q8768p--15">
          <mxGeometry relative="1" as="geometry" />
        </mxCell>
        <mxCell id="y5qCoeXlOaaje20BISwL-15" value="Bms嵌入其他系统流程" style="rounded=1;whiteSpace=wrap;html=1;sketch=1;curveFitting=1;jiggle=2;labelBackgroundColor=none;fillColor=#b1ddf0;strokeColor=#10739e;fontSize=13;fontStyle=0;" vertex="1" parent="1">
          <mxGeometry x="504.25" y="-115" width="71" height="150" as="geometry" />
        </mxCell>
        <mxCell id="y5qCoeXlOaaje20BISwL-16" value="前端使用rock平台搭建，前端页面采用upms鉴权" style="rounded=1;whiteSpace=wrap;html=1;sketch=1;curveFitting=1;jiggle=2;labelBackgroundColor=none;fillColor=#b1ddf0;strokeColor=#10739e;fontSize=13;fontStyle=0;" vertex="1" parent="1">
          <mxGeometry x="824.25" y="-150" width="100" height="160" as="geometry" />
        </mxCell>
        <mxCell id="y5qCoeXlOaaje20BISwL-17" value="后端系统，引入upms的jar包实现后端鉴权" style="rounded=1;whiteSpace=wrap;html=1;sketch=1;curveFitting=1;jiggle=2;labelBackgroundColor=none;fillColor=#b1ddf0;strokeColor=#10739e;fontSize=13;fontStyle=0;" vertex="1" parent="1">
          <mxGeometry x="1074.25" y="-150" width="90" height="160" as="geometry" />
        </mxCell>
        <mxCell id="y5qCoeXlOaaje20BISwL-21" style="edgeStyle=orthogonalEdgeStyle;rounded=0;sketch=1;hachureGap=4;jiggle=2;curveFitting=1;orthogonalLoop=1;jettySize=auto;html=1;exitX=0.5;exitY=1;exitDx=0;exitDy=0;entryX=0.452;entryY=-0.022;entryDx=0;entryDy=0;entryPerimeter=0;fontFamily=Architects Daughter;fontSource=https%3A%2F%2Ffonts.googleapis.com%2Fcss%3Ffamily%3DArchitects%2BDaughter;" edge="1" parent="1" source="h03oHfglPhTB2q8768p--1" target="y5qCoeXlOaaje20BISwL-7">
          <mxGeometry relative="1" as="geometry" />
        </mxCell>
        <mxCell id="y5qCoeXlOaaje20BISwL-38" value="&lt;font style=&quot;font-size: 16px;&quot;&gt;现有后台系统有哪些？现状如何？&lt;/font&gt;" style="text;html=1;align=center;verticalAlign=middle;whiteSpace=wrap;rounded=0;fontFamily=Architects Daughter;fontSource=https%3A%2F%2Ffonts.googleapis.com%2Fcss%3Ffamily%3DArchitects%2BDaughter;strokeWidth=3;" vertex="1" parent="1">
          <mxGeometry x="-470" y="-360" width="260" height="30" as="geometry" />
        </mxCell>
        <mxCell id="y5qCoeXlOaaje20BISwL-39" value="&lt;font style=&quot;font-size: 16px;&quot;&gt;现有的后台系统如何进行接入？&lt;/font&gt;" style="text;html=1;align=center;verticalAlign=middle;whiteSpace=wrap;rounded=0;fontFamily=Architects Daughter;fontSource=https%3A%2F%2Ffonts.googleapis.com%2Fcss%3Ffamily%3DArchitects%2BDaughter;strokeWidth=3;" vertex="1" parent="1">
          <mxGeometry x="280" y="-355" width="260" height="30" as="geometry" />
        </mxCell>
        <mxCell id="y5qCoeXlOaaje20BISwL-40" value="&lt;font style=&quot;font-size: 16px;&quot;&gt;建立统一后台系统可以参考什么样的方案？&lt;/font&gt;" style="text;html=1;align=center;verticalAlign=middle;whiteSpace=wrap;rounded=0;fontFamily=Architects Daughter;fontSource=https%3A%2F%2Ffonts.googleapis.com%2Fcss%3Ffamily%3DArchitects%2BDaughter;strokeWidth=3;" vertex="1" parent="1">
          <mxGeometry x="1000" y="-370" width="260" height="30" as="geometry" />
        </mxCell>
      </root>
    </mxGraphModel>
  </diagram>
</mxfile>
